<svg height="512pt" viewBox="-83 0 512 512.00025" width="512pt" xmlns="http://www.w3.org/2000/svg"><path d="m225.597656 512c-.117187 0-.234375 0-.347656-.003906-9.738281-.1875-17.480469-8.234375-17.292969-17.972656.714844-36.90625-1.578125-64.996094-3.253906-85.507813l-.078125-.945313c-.789062-9.703124 6.4375-18.21875 16.144531-19.007812 9.679688-.792969 18.21875 6.433594 19.011719 16.140625l.074219.941406c1.738281 21.257813 4.117187 50.375 3.367187 89.0625-.1875 9.621094-8.046875 17.292969-17.625 17.292969zm0 0" fill="#efd176"/><path d="m120.050781 512c-9.582031 0-17.441406-7.671875-17.625-17.292969-.75-38.6875 1.628907-67.804687 3.363281-89.0625l.078126-.941406c.789062-9.707031 9.300781-16.945313 19.011718-16.140625 9.707032.789062 16.933594 9.304688 16.140625 19.007812l-.078125.945313c-1.671875 20.507813-3.964844 48.601563-3.253906 85.507813.191406 9.738281-7.550781 17.785156-17.289062 17.972656-.117188.003906-.230469.003906-.347657.003906zm0 0" fill="#efd176"/><path d="m328.019531 454.128906c-6.59375 0-12.917969-3.714844-15.9375-10.066406-13.539062-28.476562-20.351562-54.394531-26.359375-77.261719-6.917968-26.332031-12.382812-47.132812-25.171875-57.398437-7.59375-6.097656-8.808593-17.195313-2.710937-24.789063s17.195312-8.8125 24.792968-2.710937c21.859376 17.550781 28.96875 44.605468 37.203126 75.9375 5.613281 21.367187 11.976562 45.585937 24.097656 71.078125 4.179687 8.796875.441406 19.316406-8.355469 23.5-2.441406 1.160156-5.019531 1.710937-7.558594 1.710937zm0 0" fill="#efd176"/><path d="m17.625 454.128906c-2.535156 0-5.113281-.546875-7.558594-1.710937-8.796875-4.183594-12.535156-14.703125-8.355468-23.5 12.121093-25.492188 18.484374-49.710938 24.101562-71.078125 8.230469-31.332032 15.339844-58.386719 37.199219-75.9375 7.597656-6.097656 18.695312-4.882813 24.792969 2.710937 6.097656 7.59375 4.882812 18.691407-2.710938 24.789063-12.785156 10.265625-18.25 31.066406-25.171875 57.398437-6.007813 22.867188-12.816406 48.785157-26.355469 77.261719-3.019531 6.351562-9.347656 10.066406-15.941406 10.066406zm0 0" fill="#efd176"/><path d="m124.339844 71.054688c24.8125 24.8125 29.066406 63.441406 29.488281 83.265624.152344 7.203126-5.734375 13.09375-12.941406 12.941407-19.824219-.425781-58.453125-4.675781-83.265625-29.488281s-29.0625-63.441407-29.488282-83.265626c-.152343-7.207031 5.738282-13.09375 12.941407-12.941406 19.824219.425782 58.453125 4.675782 83.265625 29.488282zm0 0" fill="#8ee2cf"/><path d="m105.859375 126.792969c-1.917969 0-3.839844-.734375-5.304687-2.199219l-29.757813-29.757812c-2.925781-2.925782-2.925781-7.675782 0-10.605469 2.929687-2.929688 7.679687-2.929688 10.609375 0l29.757812 29.757812c2.929688 2.929688 2.929688 7.679688 0 10.605469-1.464843 1.464844-3.382812 2.199219-5.304687 2.199219zm0 0" fill="#6fce91"/><path d="m221.304688 71.054688c-24.8125 24.8125-29.0625 63.441406-29.488282 83.265624-.152344 7.203126 5.738282 13.09375 12.941406 12.941407 19.824219-.425781 58.453126-4.675781 83.265626-29.488281s29.066406-63.441407 29.488281-83.265626c.15625-7.207031-5.734375-13.09375-12.9375-12.941406-19.828125.425782-58.457031 4.675782-83.269531 29.488282zm0 0" fill="#8ee2cf"/><path d="m239.785156 126.792969c-1.917968 0-3.835937-.734375-5.304687-2.199219-2.925781-2.925781-2.925781-7.675781 0-10.605469l29.761719-29.757812c2.929687-2.929688 7.675781-2.929688 10.605468 0 2.929688 2.929687 2.929688 7.679687 0 10.605469l-29.757812 29.757812c-1.464844 1.464844-3.382813 2.199219-5.304688 2.199219zm0 0" fill="#6fce91"/><path d="m220 83.632812c0 35.089844-24.308594 65.410157-38.027344 79.726563-4.984375 5.203125-13.3125 5.203125-18.296875 0-13.71875-14.316406-38.027343-44.636719-38.027343-79.726563 0-35.089843 24.304687-65.414062 38.023437-79.730468 4.988281-5.203125 13.316406-5.203125 18.300781 0 13.71875 14.316406 38.027344 44.640625 38.027344 79.730468zm0 0" fill="#8ee2cf"/><path d="m172.824219 112.175781c-4.144531 0-7.5-3.359375-7.5-7.5v-42.085937c0-4.144532 3.355469-7.5 7.5-7.5 4.140625 0 7.5 3.355468 7.5 7.5v42.082031c0 4.144531-3.359375 7.503906-7.5 7.503906zm0 0" fill="#6fce91"/><path d="m172.824219 134.683594c72.789062 0 124.824219 57.328125 131.796875 144.140625 7.257812 90.304687-26.710938 157.667969-131.796875 157.667969-105.085938 0-139.054688-67.363282-131.800781-157.667969 6.976562-86.8125 59.007812-144.140625 131.800781-144.140625zm0 0" fill="#f7ef87"/><g fill="#efd176"><path d="m129.308594 142.25c-49.421875 18.246094-82.796875 68.28125-88.285156 136.574219-7.234376 90.054687 26.53125 157.285156 130.933593 157.65625-126.71875-77.527344-92.738281-217.40625-42.648437-294.230469zm0 0"/><path d="m185.621094 252.75c-1.921875 0-3.839844-.730469-5.304688-2.195312l-7.492187-7.496094-7.492188 7.496094c-2.933593 2.929687-7.679687 2.929687-10.609375 0-2.929687-2.929688-2.929687-7.675782 0-10.605469l12.796875-12.796875c1.40625-1.40625 3.316407-2.199219 5.304688-2.199219s3.894531.792969 5.304687 2.199219l12.796875 12.796875c2.929688 2.929687 2.929688 7.675781 0 10.605469-1.464843 1.464843-3.386719 2.195312-5.304687 2.195312zm0 0"/><path d="m258.785156 252.75c-1.917968 0-3.839844-.730469-5.304687-2.195312l-7.492188-7.496094-7.492187 7.496094c-2.933594 2.925781-7.679688 2.929687-10.609375 0-2.929688-2.929688-2.929688-7.679688 0-10.609376l12.796875-12.796874c1.40625-1.40625 3.316406-2.195313 5.304687-2.195313s3.894531.789063 5.304688 2.195313l12.796875 12.796874c2.929687 2.929688 2.929687 7.679688 0 10.609376-1.464844 1.464843-3.386719 2.195312-5.304688 2.195312zm0 0"/><path d="m112.457031 252.75c-1.921875 0-3.839843-.730469-5.304687-2.195312l-7.492188-7.496094-7.496094 7.496094c-2.929687 2.925781-7.679687 2.925781-10.605468 0-2.929688-2.929688-2.929688-7.679688 0-10.609376l12.796875-12.796874c1.40625-1.40625 3.316406-2.195313 5.304687-2.195313 1.988282 0 3.894532.789063 5.304688 2.195313l12.796875 12.796874c2.929687 2.929688 2.929687 7.679688 0 10.609376-1.464844 1.464843-3.386719 2.195312-5.304688 2.195312zm0 0"/><path d="m222.203125 395.492188c-1.917969 0-3.839844-.730469-5.304687-2.195313l-7.492188-7.492187-7.492188 7.492187c-2.933593 2.929687-7.679687 2.929687-10.609374 0-2.929688-2.929687-2.929688-7.675781 0-10.605469l12.796874-12.796875c2.929688-2.929687 7.679688-2.929687 10.605469 0l12.800781 12.796875c2.929688 2.929688 2.929688 7.679688 0 10.605469-1.464843 1.464844-3.386718 2.195313-5.304687 2.195313zm0 0"/><path d="m149.039062 395.492188c-1.917968 0-3.839843-.730469-5.304687-2.195313l-7.492187-7.496094-7.496094 7.496094c-2.929688 2.925781-7.675782 2.925781-10.605469 0-2.929687-2.929687-2.929687-7.679687 0-10.609375l12.796875-12.796875c2.929688-2.929687 7.679688-2.925781 10.609375 0l12.796875 12.796875c2.929688 2.929688 2.929688 7.679688 0 10.605469-1.464844 1.46875-3.386719 2.199219-5.304688 2.199219zm0 0"/></g><path d="m200.121094 344.828125c-2.371094 0-4.707032-1.121094-6.164063-3.21875-5.460937-7.851563-13.164062-12.355469-21.132812-12.355469s-15.671875 4.503906-21.136719 12.355469c-2.363281 3.402344-7.035156 4.242187-10.4375 1.875-3.402344-2.363281-4.238281-7.039063-1.875-10.4375 8.308594-11.945313 20.5-18.792969 33.449219-18.792969s25.140625 6.847656 33.445312 18.792969c2.367188 3.398437 1.527344 8.074219-1.871093 10.4375-1.304688.910156-2.800782 1.34375-4.277344 1.34375zm0 0" fill="#4e5660"/><path d="m106.246094 316.957031c-8.898438 0-17.355469-3.851562-23.207032-10.566406-2.722656-3.125-2.394531-7.863281.726563-10.582031 3.121094-2.722656 7.859375-2.398438 10.582031.726562 3.003906 3.445313 7.339844 5.421875 11.898438 5.421875 4.554687 0 8.894531-1.976562 11.898437-5.421875 2.71875-3.125 7.457031-3.449218 10.578125-.726562 3.125 2.71875 3.449219 7.457031.730469 10.582031-5.855469 6.714844-14.3125 10.566406-23.207031 10.566406zm0 0" fill="#4e5660"/><path d="m239.402344 316.957031c-8.898438 0-17.355469-3.851562-23.207032-10.566406-2.722656-3.125-2.398437-7.863281.726563-10.582031 3.121094-2.722656 7.859375-2.398438 10.582031.726562 3.003906 3.445313 7.339844 5.421875 11.898438 5.421875s8.894531-1.976562 11.898437-5.421875c2.71875-3.125 7.457031-3.449218 10.578125-.726562 3.125 2.71875 3.449219 7.457031.730469 10.582031-5.851563 6.714844-14.3125 10.566406-23.207031 10.566406zm0 0" fill="#4e5660"/><path d="m115.191406 173.675781h-28.527344c-11.984374 0-20.917968 11.050781-18.40625 22.769531l1.582032 7.367188c2.65625 12.386719 13.597656 21.234375 26.265625 21.234375h9.644531c12.667969 0 23.613281-8.847656 26.269531-21.234375l1.578125-7.367188c2.515625-11.71875-6.417968-22.769531-18.40625-22.769531zm0 0" fill="#4e5660"/><path d="m216.460938 187.519531c-.335938 0-.679688-.023437-1.023438-.070312-10.316406-1.40625-24.480469-3.019531-42.613281-3.019531-18.132813 0-32.300781 1.613281-42.617188 3.019531-4.101562.554687-7.882812-2.3125-8.441406-6.417969s2.3125-7.886719 6.417969-8.445312c10.785156-1.46875 25.605468-3.15625 44.640625-3.15625 19.035156 0 33.855469 1.6875 44.640625 3.15625 4.105468.5625 6.976562 4.339843 6.417968 8.445312-.511718 3.761719-3.730468 6.488281-7.421874 6.488281zm0 0" fill="#e26e7e"/><path d="m105.753906 232.546875h-9.648437c-16.09375 0-30.222657-11.421875-33.597657-27.160156l-1.582031-7.371094c-1.675781-7.808594.246094-15.851563 5.265625-22.0625 5.023438-6.214844 12.484375-9.777344 20.476563-9.777344h28.527343c7.988282 0 15.449219 3.5625 20.472657 9.777344 5.019531 6.210937 6.941406 14.253906 5.265625 22.0625l-1.578125 7.371094c-3.378907 15.738281-17.507813 27.160156-33.601563 27.160156zm-19.089844-51.371094c-3.433593 0-6.644531 1.53125-8.808593 4.203125-2.15625 2.675782-2.984375 6.132813-2.265625 9.496094l1.582031 7.367188c1.902344 8.867187 9.863281 15.304687 18.933594 15.304687h9.644531c9.070312 0 17.035156-6.4375 18.9375-15.304687l1.578125-7.367188c.71875-3.363281-.105469-6.820312-2.265625-9.496094-2.160156-2.671875-5.371094-4.203125-8.808594-4.203125zm0 0" fill="#e26e7e"/><path d="m230.453125 173.675781h28.527344c11.984375 0 20.917969 11.050781 18.40625 22.769531l-1.578125 7.367188c-2.65625 12.386719-13.601563 21.234375-26.269532 21.234375h-9.644531c-12.667969 0-23.613281-8.847656-26.265625-21.234375l-1.582031-7.367188c-2.511719-11.71875 6.421875-22.769531 18.40625-22.769531zm0 0" fill="#4e5660"/><path d="m249.539062 232.546875h-9.644531c-16.097656 0-30.226562-11.421875-33.601562-27.160156l-1.578125-7.371094c-1.675782-7.808594.242187-15.851563 5.265625-22.066406 5.019531-6.210938 12.484375-9.773438 20.472656-9.773438h28.527344c7.988281 0 15.453125 3.5625 20.472656 9.773438 5.023437 6.214843 6.941406 14.257812 5.269531 22.066406l-1.582031 7.371094c-3.375 15.738281-17.507813 27.160156-33.601563 27.160156zm-19.085937-51.371094c-3.4375 0-6.644531 1.53125-8.808594 4.203125-2.160156 2.675782-2.984375 6.132813-2.265625 9.496094l1.582032 7.367188c1.898437 8.867187 9.863281 15.304687 18.933593 15.304687h9.644531c9.070313 0 17.035157-6.4375 18.9375-15.304687l1.578126-7.367188c.71875-3.363281-.105469-6.820312-2.265626-9.496094-2.160156-2.671875-5.371093-4.203125-8.808593-4.203125zm0 0" fill="#e26e7e"/><path d="m272.167969 340.179688c2.800781-3.804688 8.488281-3.804688 11.289062 0 6.046875 8.21875 14.785157 21.925781 14.785157 32.53125 0 11.285156-9.144532 20.433593-20.429688 20.433593s-20.433594-9.148437-20.433594-20.433593c.003906-10.605469 8.742188-24.3125 14.789063-32.53125zm0 0" fill="#a3defe"/></svg>