<svg height="512pt" viewBox="0 0 512 512" width="512pt" xmlns="http://www.w3.org/2000/svg"><path d="m512 256c0 141.386719-114.613281 256-256 256s-256-114.613281-256-256 114.613281-256 256-256 256 114.613281 256 256zm0 0" fill="#addb31"/><path d="m199.503906 358.335938-110.449218-107.488282 68.65625-66.816406 41.792968 40.671875 138.785156-135.039063 68.65625 66.816407zm0 0" fill="#fff"/><g fill="#6fbb2e"><path d="m144 384h96c8.835938 0 16 7.164062 16 16s-7.164062 16-16 16h-96c-8.835938 0-16-7.164062-16-16s7.164062-16 16-16zm0 0"/><path d="m288 384h32v32h-32zm0 0"/><path d="m352 384h32v32h-32zm0 0"/></g></svg>