<?xml version="1.0" encoding="iso-8859-1"?>
<!-- Generator: Adobe Illustrator 19.0.0, SVG Export Plug-In . SVG Version: 6.00 Build 0)  -->
<svg version="1.1" id="Capa_1" xmlns="http://www.w3.org/2000/svg" xmlns:xlink="http://www.w3.org/1999/xlink" x="0px" y="0px"
	 viewBox="0 0 511.999 511.999" style="enable-background:new 0 0 511.999 511.999;" xml:space="preserve">
<path style="fill:#FAC149;" d="M162.649,217.139H68.884l0,0c0-28.995,23.505-53.53,52.501-53.53h36.377
	c2.7,0,4.888,2.188,4.888,4.888L162.649,217.139L162.649,217.139z"/>
<path style="fill:#F8A748;" d="M149.179,163.609h-27.795c-28.995,0-52.501,24.535-52.501,53.53h27.795
	C96.678,188.144,120.183,163.609,149.179,163.609z"/>
<path style="fill:#EFEFEF;" d="M9.69,380.818h67.561c2.231,0,4.315-1.115,5.553-2.972l17.912-26.869
	c0.863-1.295,2.316-2.072,3.872-2.072h58.061V216.11H66.653c-11.127,0-21.284,6.33-26.186,16.32l-28.842,58.783
	c-1.553,3.165-2.36,6.644-2.36,10.17v79.457C9.407,380.833,9.547,380.818,9.69,380.818z"/>
<path style="fill:#DDDDDD;" d="M37.059,301.383c0-3.526,0.807-7.005,2.36-10.17l28.842-58.783
	c4.901-9.989,15.059-16.32,26.186-16.32H66.653c-11.127,0-21.284,6.33-26.186,16.32l-28.842,58.783
	c-1.553,3.165-2.36,6.644-2.36,10.17v79.457c0.142-0.006,0.282-0.022,0.425-0.022h27.369V301.383z"/>
<rect x="160.85" y="346.85" style="fill:#4D6682;" width="33.714" height="51.47"/>
<path style="fill:#3997EE;" d="M292.073,127.579h-89.718c-6.01,0-10.881,4.872-10.881,10.881v257.799h143.87H473.54h20.586
	c0-23.355,0-217.095,0-224v-44.681L292.073,127.579L292.073,127.579z"/>
<path style="fill:#1E88D8;" d="M257.429,127.579h-55.074c-6.01,0-10.881,4.872-10.881,10.881v257.799h55.074V138.46
	C246.548,132.451,251.42,127.579,257.429,127.579z"/>
<circle style="fill:#FAC149;" cx="397.87" cy="129.119" r="105.52"/>
<path style="fill:#F8A748;" d="M339.48,162.837c-25.886-44.836-15.124-100.771,22.988-133.128
	c-62.213,22.237-88.842,95.243-55.974,152.172c29.138,50.468,93.67,67.759,144.138,38.622c5.631-3.251,10.847-6.946,15.634-11.01
	C419.188,226.32,365.366,207.673,339.48,162.837z"/>
<rect x="232.65" y="127.58" style="fill:#48AEF9;" width="27.795" height="270.74"/>
<path style="fill:#3997EE;" d="M246.548,396.259V138.46c0-6.01,4.872-10.881,10.881-10.881H232.65v268.68H246.548z"/>
<g>
	<path style="fill:#48AEF9;" d="M296.475,153.183v245.135h27.795V199.545C311.355,186.961,301.642,171.053,296.475,153.183z"/>
	<path style="fill:#48AEF9;" d="M360.299,222.563v137.164c0.345-0.134,0.701-0.239,1.064-0.322c0.155-0.036,0.311-0.069,0.469-0.095
		c0.114-0.019,0.227-0.037,0.342-0.05c0.288-0.035,0.578-0.058,0.872-0.058l0,0h25.048V228.92
		C378.39,228.078,369.065,225.899,360.299,222.563z"/>
	<path style="fill:#48AEF9;" d="M448.051,359.2c0.299,0,0.595,0.025,0.887,0.06c0.087,0.01,0.173,0.022,0.259,0.035
		c0.234,0.036,0.465,0.083,0.693,0.141c0.129,0.032,0.256,0.071,0.383,0.11c0.17,0.053,0.338,0.109,0.504,0.174
		c0.148,0.057,0.293,0.119,0.437,0.185c0.079,0.037,0.156,0.078,0.235,0.117c0.328,0.165,0.643,0.351,0.945,0.562
		c0.013,0.009,0.026,0.017,0.038,0.026c0.178,0.126,0.349,0.259,0.516,0.399V213.877c-8.535,5.27-17.877,9.339-27.795,11.974V359.2
		H448.051L448.051,359.2L448.051,359.2z"/>
</g>
<path style="fill:#A4D9F4;" d="M76.132,297.434h35.314c4.4,0,7.967-3.567,7.967-7.967V216.11h-52.79
	c-11.151,0-21.326,6.358-26.215,16.38l-28.793,59.03c-1.546,3.171-2.35,6.653-2.35,10.182v26.615h41.159
	c2.128,0,4.107-1.093,5.241-2.895l16.08-25.564C72.693,298.35,74.35,297.434,76.132,297.434z"/>
<path style="fill:#77CFF2;" d="M37.059,301.383c0-3.526,0.807-7.005,2.36-10.17l28.842-58.783
	c4.901-9.989,15.059-16.32,26.186-16.32H66.653c-11.127,0-21.284,6.33-26.186,16.32l-5.081,10.356L11.615,291.52
	c-1.546,3.171-2.35,6.653-2.35,10.182v26.615H37.06L37.059,301.383L37.059,301.383z"/>
<path style="fill:#DDDDDD;" d="M103.972,329.861H92.648c-4.264,0-7.721-3.456-7.721-7.721c0-4.264,3.457-7.721,7.721-7.721h11.324
	c4.264,0,7.721,3.456,7.721,7.721S108.236,329.861,103.972,329.861z"/>
<path style="fill:#FAC149;" d="M9.265,361.259h21.389c8.45,0,15.859-6.191,16.789-14.589c1.102-9.939-6.649-18.353-16.366-18.353
	H9.265V361.259z"/>
<path style="fill:#F8A748;" d="M26.333,346.67c-0.869-7.843,3.784-14.717,10.555-17.276c-1.81-0.684-3.762-1.077-5.811-1.077H9.265
	v32.942h21.389c2.18,0,4.287-0.419,6.234-1.174C31.285,357.911,27.023,352.902,26.333,346.67z"/>
<path style="fill:#647892;" d="M104.588,346.846c-1.556,0-3.009,0.778-3.872,2.072l-17.912,26.869
	c-1.238,1.857-3.321,2.972-5.553,2.972H9.69c-5.352,0-9.69,4.339-9.69,9.69v11.466c0,11.626,9.425,21.051,21.05,21.051h71.897
	h69.702v-38.649v-14.882v-20.589H104.588z"/>
<g>
	<path style="fill:#4D6682;" d="M111.21,375.788l17.912-26.869c0.863-1.294,2.316-2.072,3.872-2.072h-28.406
		c-1.556,0-3.009,0.778-3.872,2.072l-17.912,26.869c-1.238,1.857-3.321,2.972-5.553,2.972h28.406
		C107.889,378.759,109.973,377.644,111.21,375.788z"/>
	<path style="fill:#4D6682;" d="M28.406,399.915v-11.466c0-5.352,4.339-9.69,9.69-9.69H9.69c-5.352,0-9.69,4.339-9.69,9.69v11.466
		c0,11.626,9.425,21.051,21.05,21.051h28.406C37.831,420.966,28.406,411.54,28.406,399.915z"/>
</g>
<path style="fill:#647892;" d="M454.263,358.036c-1.381-2.465-3.933-3.984-6.695-3.984h-84.1c-2.762,0-5.314,1.519-6.695,3.984
	l-20.353,36.336h32.796h72.604h32.796L454.263,358.036z"/>
<path style="fill:#4D6682;" d="M395.896,354.053h-32.427c-2.762,0-5.314,1.519-6.695,3.984l-20.353,36.336h32.427l20.353-36.336
	C390.582,355.572,393.134,354.053,395.896,354.053z"/>
<g>
	<path style="fill:#EFEFEF;" d="M397.359,119.858c-4.264,0-7.721-3.456-7.721-7.721V61.696c0-4.265,3.457-7.721,7.721-7.721
		s7.721,3.456,7.721,7.721v50.442C405.08,116.402,401.623,119.858,397.359,119.858z"/>
	<path style="fill:#EFEFEF;" d="M380.888,137.359h-38.089c-4.264,0-7.721-3.456-7.721-7.721c0-4.265,3.457-7.721,7.721-7.721h38.089
		c4.264,0,7.721,3.456,7.721,7.721C388.609,133.902,385.152,137.359,380.888,137.359z"/>
</g>
<path style="fill:#647892;" d="M397.874,15.886c-0.137,0-0.274,0.005-0.411,0.005c-0.035-0.001-0.069-0.005-0.104-0.005
	c-0.058,0-0.115,0.007-0.173,0.009c-62.405,0.374-112.549,51.484-112.549,112.714c0,64.382,51.875,113.379,112.549,113.743
	c0.058,0.001,0.115,0.009,0.173,0.009c0.035,0,0.069-0.005,0.104-0.005c0.137,0.001,0.274,0.005,0.411,0.005
	c62.43,0,113.467-50.88,113.232-113.648C511.978,69.543,462.181,15.886,397.874,15.886z M405.08,226.653v-3.337
	c0-4.265-3.457-7.721-7.721-7.721s-7.721,3.456-7.721,7.721v3.253c-47.712-3.998-85.792-42.391-89.294-90.24h3.337
	c4.264,0,7.721-3.456,7.721-7.721c0-4.265-3.457-7.721-7.721-7.721h-3.253c3.969-47.368,41.841-85.241,89.21-89.21v3.253
	c0,4.265,3.457,7.721,7.721,7.721s7.721-3.456,7.721-7.721v-3.337c47.849,3.502,86.242,41.583,90.24,89.294h-3.253
	c-4.264,0-7.721,3.456-7.721,7.721c0,4.264,3.457,7.721,7.721,7.721h3.337C491.876,184.522,453.272,223.126,405.08,226.653z"/>
<path style="fill:#EFEFEF;" d="M497.686,496.114H14.447c-7.51,0-13.996-5.767-14.33-13.269c-0.354-7.961,6.06-14.526,14.023-14.526
	h483.239c7.51,0,13.996,5.767,14.33,13.269C512.064,489.549,505.649,496.114,497.686,496.114z"/>
<g>
	<path style="fill:#DDDDDD;" d="M224.465,482.845c-0.354-7.961,6.06-14.526,14.023-14.526H14.14
		c-7.963,0-14.377,6.564-14.023,14.526c0.334,7.502,6.82,13.269,14.33,13.269h224.349
		C231.286,496.114,224.799,490.346,224.465,482.845z"/>
	<circle style="fill:#DDDDDD;" cx="397.87" cy="129.119" r="17.329"/>
</g>
<path style="fill:#CECCCA;" d="M397.874,129.123c-3.205-5.551-2.975-12.132,0.008-17.315c-2.948-0.004-5.935,0.728-8.672,2.308
	c-8.288,4.785-11.128,15.383-6.343,23.671c4.785,8.288,15.383,11.128,23.671,6.343c2.737-1.58,4.865-3.801,6.335-6.356
	C406.893,137.765,401.079,134.675,397.874,129.123z"/>
<path style="fill:#7D93AA;" d="M498.013,393.171h-3.881h-42.385h-6.159h-3.881H171.954c6.247,7.948,9.987,17.954,9.987,28.824
	h269.753h3.882H481.6h11.681h3.881c8.194,0,14.837-6.643,14.837-14.837C512,399.433,505.738,393.171,498.013,393.171z"/>
<path style="fill:#647892;" d="M224.451,407.583L224.451,407.583c0-6.176,3.381-11.553,8.385-14.412h-60.883
	c6.247,7.948,9.987,17.954,9.987,28.824h50.896C227.832,419.137,224.451,413.759,224.451,407.583z"/>
<path style="fill:#4D6682;" d="M116.158,382.09c-22.144,12.785-29.758,41.202-16.974,63.346
	c12.785,22.144,41.202,29.759,63.346,16.974s29.758-41.202,16.974-63.346C166.719,376.92,138.302,369.305,116.158,382.09z"/>
<path style="fill:#3B5271;" d="M124.752,430.674c-10.205-17.675-7.402-39.338,5.401-53.867c-4.8,0.967-9.526,2.702-13.996,5.283
	c-22.144,12.785-29.758,41.202-16.973,63.346s41.202,29.758,63.346,16.974c4.469-2.58,8.335-5.806,11.573-9.479
	C155.119,456.754,134.957,448.349,124.752,430.674z"/>
<path style="fill:#EFEFEF;" d="M147.768,436.842c-8.046,4.645-18.371,1.879-23.016-6.167s-1.879-18.371,6.167-23.016
	s18.371-1.879,23.016,6.167C158.581,421.872,155.814,432.197,147.768,436.842z"/>
<path style="fill:#DDDDDD;" d="M139.344,422.25c-3.11-5.387-2.883-11.788,0.011-16.829c-2.87-0.007-5.777,0.703-8.436,2.238
	c-8.046,4.645-10.812,14.97-6.167,23.016s14.97,10.812,23.016,6.167c2.659-1.535,4.727-3.698,6.156-6.187
	C148.111,430.641,142.454,427.637,139.344,422.25z"/>
<path style="fill:#4D6682;" d="M382.333,382.09c-22.144,12.785-29.758,41.202-16.973,63.346s41.202,29.759,63.346,16.974
	s29.758-41.202,16.973-63.346C432.894,376.92,404.477,369.305,382.333,382.09z"/>
<path style="fill:#3B5271;" d="M390.927,430.674c-10.205-17.675-7.402-39.338,5.401-53.867c-4.8,0.967-9.526,2.702-13.996,5.283
	c-22.144,12.785-29.758,41.202-16.973,63.346s41.202,29.758,63.346,16.974c4.469-2.58,8.335-5.806,11.573-9.479
	C421.294,456.754,401.132,448.349,390.927,430.674z"/>
<path style="fill:#EFEFEF;" d="M413.943,436.842c-8.046,4.645-18.371,1.879-23.016-6.167s-1.879-18.371,6.167-23.016
	s18.371-1.879,23.016,6.167C424.756,421.872,421.989,432.197,413.943,436.842z"/>
<path style="fill:#DDDDDD;" d="M405.519,422.25c-3.11-5.387-2.883-11.788,0.011-16.829c-2.87-0.007-5.777,0.703-8.436,2.238
	c-8.046,4.645-10.812,14.97-6.167,23.016c4.645,8.046,14.97,10.812,23.016,6.167c2.659-1.535,4.727-3.698,6.156-6.187
	C414.286,430.641,408.629,427.637,405.519,422.25z"/>
<g>
</g>
<g>
</g>
<g>
</g>
<g>
</g>
<g>
</g>
<g>
</g>
<g>
</g>
<g>
</g>
<g>
</g>
<g>
</g>
<g>
</g>
<g>
</g>
<g>
</g>
<g>
</g>
<g>
</g>
</svg>
