<svg height="464pt" viewBox="0 0 464 464.00001" width="464pt" xmlns="http://www.w3.org/2000/svg"><path d="m355.894531 334.398438-35.894531 25.601562-35.894531-25.601562c-12.628907-9.015626-20.121094-23.585938-20.105469-39.101563v-79.296875c0-30.929688 25.070312-56 56-56s56 25.070312 56 56v79.296875c.015625 15.515625-7.476562 30.085937-20.105469 39.101563zm0 0" fill="#7ea633"/><path d="m281.640625 379.894531-25.640625-35.894531 25.601562-35.894531c9.015626-12.628907 23.585938-20.121094 39.101563-20.105469h79.296875c30.929688 0 56 25.070312 56 56s-25.070312 56-56 56h-79.296875c-15.503906 0-30.050781-7.488281-39.0625-20.105469zm0 0" fill="#769c30"/><path d="m349.65625 370.34375-18.34375-18.34375h33.375l29.65625 29.65625 11.3125-11.3125-18.34375-18.34375h36.6875v-16h-36.6875l18.34375-18.34375-11.3125-11.3125-29.65625 29.65625h-33.375l18.34375-18.34375-11.3125-11.3125-29.65625 29.65625h-92.6875v16h92.6875l29.65625 29.65625zm0 0" fill="#6a8c2c"/><path d="m80 288h64c17.671875 0 32 14.328125 32 32s-14.328125 32-32 32h-64c-17.671875 0-32-14.328125-32-32s14.328125-32 32-32zm0 0" fill="#ff9f19"/><path d="m72 312h16v16h-16zm0 0" fill="#f78b20"/><path d="m160 288h64c17.671875 0 32 14.328125 32 32s-14.328125 32-32 32h-64c-17.671875 0-32-14.328125-32-32s14.328125-32 32-32zm0 0" fill="#fdb62f"/><path d="m160 288h16v16h-16zm0 0" fill="#ff9f19"/><path d="m200 312h16v16h-16zm0 0" fill="#ff9f19"/><path d="m320 320c0 22.089844-17.910156 40-40 40s-40-17.910156-40-40 17.910156-40 40-40 40 17.910156 40 40zm0 0" fill="#ff9f19"/><path d="m0 336h464v64h-464zm0 0" fill="#995023"/><path d="m0 240h464v64h-464zm0 0" fill="#995023"/><path d="m424 360h16v16h-16zm0 0" fill="#7a3e1a"/><path d="m24 360h16v16h-16zm0 0" fill="#7a3e1a"/><path d="m24 264h16v16h-16zm0 0" fill="#7a3e1a"/><path d="m424 264h16v16h-16zm0 0" fill="#7a3e1a"/><path d="m0 304h64v32h-64zm0 0" fill="#7a3e1a"/><path d="m400 304h64v32h-64zm0 0" fill="#7a3e1a"/><path d="m64 112h-16v-16c0-17.671875 14.328125-32 32-32h16v16c0 17.671875-14.328125 32-32 32zm0 0" fill="#ff9f19"/><path d="m64 160h-16v-16c0-17.671875 14.328125-32 32-32h16v16c0 17.671875-14.328125 32-32 32zm0 0" fill="#ff9f19"/><path d="m64 208h-16v-16c0-17.671875 14.328125-32 32-32h16v16c0 17.671875-14.328125 32-32 32zm0 0" fill="#ff9f19"/><path d="m80 32h16v40h-16zm0 0" fill="#ff9f19"/><g fill="#fdb62f"><path d="m40 64h16v176h-16zm0 0"/><path d="m0 64h16c17.671875 0 32 14.328125 32 32v16h-16c-17.671875 0-32-14.328125-32-32zm0 0"/><path d="m0 112h16c17.671875 0 32 14.328125 32 32v16h-16c-17.671875 0-32-14.328125-32-32zm0 0"/><path d="m0 160h16c17.671875 0 32 14.328125 32 32v16h-16c-17.671875 0-32-14.328125-32-32zm0 0"/><path d="m48 80c-10.695312-7.132812-17.121094-19.140625-17.121094-32s6.425782-24.867188 17.121094-32c10.695312 7.132812 17.121094 19.140625 17.121094 32s-6.425782 24.867188-17.121094 32zm0 0"/><path d="m0 32h16v40h-16zm0 0"/></g><path d="m323.894531 174.398438-35.894531 25.601562-35.894531-25.601562c-12.628907-9.015626-20.121094-23.585938-20.105469-39.101563v-79.296875c0-30.929688 25.070312-56 56-56s56 25.070312 56 56v79.296875c.015625 15.515625-7.476562 30.085937-20.105469 39.101563zm0 0" fill="#769c30"/><path d="m314.34375 106.34375-18.34375 18.34375v-33.375l29.65625-29.65625-11.3125-11.3125-18.34375 18.34375v-36.6875h-16v36.6875l-18.34375-18.34375-11.3125 11.3125 29.65625 29.65625v33.375l-18.34375-18.34375-11.3125 11.3125 29.65625 29.65625v92.6875h16v-92.6875l29.65625-29.65625zm0 0" fill="#6a8c2c"/><path d="m112 176h64c17.671875 0 32 14.328125 32 32s-14.328125 32-32 32h-64c-17.671875 0-32-14.328125-32-32s14.328125-32 32-32zm0 0" fill="#ff9f19"/><path d="m104 200h16v16h-16zm0 0" fill="#f78b20"/><path d="m192 176h64c17.671875 0 32 14.328125 32 32s-14.328125 32-32 32h-64c-17.671875 0-32-14.328125-32-32s14.328125-32 32-32zm0 0" fill="#fdb62f"/><path d="m192 176h16v16h-16zm0 0" fill="#ff9f19"/><path d="m232 200h16v16h-16zm0 0" fill="#ff9f19"/><path d="m152 112h64c17.671875 0 32 14.328125 32 32s-14.328125 32-32 32h-64c-17.671875 0-32-14.328125-32-32s14.328125-32 32-32zm0 0" fill="#fdb62f"/><path d="m152 112h16v16h-16zm0 0" fill="#ff9f19"/><path d="m192 136h16v16h-16zm0 0" fill="#ff9f19"/><path d="m411.894531 174.398438-35.894531 25.601562-35.894531-25.601562c-12.628907-9.015626-20.121094-23.585938-20.105469-39.101563v-79.296875c0-30.929688 25.070312-56 56-56s56 25.070312 56 56v79.296875c.015625 15.515625-7.476562 30.085937-20.105469 39.101563zm0 0" fill="#7ea633"/><path d="m402.34375 106.34375-18.34375 18.34375v-33.375l29.65625-29.65625-11.3125-11.3125-18.34375 18.34375v-36.6875h-16v36.6875l-18.34375-18.34375-11.3125 11.3125 29.65625 29.65625v33.375l-18.34375-18.34375-11.3125 11.3125 29.65625 29.65625v92.6875h16v-92.6875l29.65625-29.65625zm0 0" fill="#6e912d"/><path d="m464 200c0 22.089844-17.910156 40-40 40s-40-17.910156-40-40 17.910156-40 40-40 40 17.910156 40 40zm0 0" fill="#fdb62f"/><path d="m400 200c0 22.089844-17.910156 40-40 40s-40-17.910156-40-40 17.910156-40 40-40 40 17.910156 40 40zm0 0" fill="#dd4a43"/><path d="m344 184h16v16h-16zm0 0" fill="#b53630"/><path d="m208.558594 464h-2.398438c-4.085937 0-8.113281-.949219-11.769531-2.777344l-10.4375-5.222656-11.199219 5.601562c-3.171875 1.578126-6.667968 2.402344-10.210937 2.398438h-3.199219c-9.332031.003906-17.726562-5.679688-21.191406-14.34375-6.777344-16.949219-10.261719-35.035156-10.265625-53.289062v-.070313c.003906-7.515625 2.996093-14.722656 8.316406-20.03125s12.535156-8.28125 20.054687-8.265625c7.5-.003906 14.695313 2.972656 20 8.28125l7.710938 7.71875 7.742188-7.734375c5.296874-5.289063 12.472656-8.257813 19.953124-8.265625h.039063c15.625.003906 28.292969 12.671875 28.296875 28.296875 0 18.300781-3.5 36.429687-10.3125 53.414063-3.464844 8.632812-11.828125 14.289062-21.128906 14.289062zm0 0" fill="#dd4a43"/><path d="m192 384h-16v-11.199219c.015625-15.351562-7.65625-29.6875-20.441406-38.183593l8.875-13.3125c17.25 11.46875 27.601562 30.820312 27.566406 51.535156zm0 0" fill="#7a3e1a"/><path d="m223.953125 328h8c0 22.089844-17.910156 40-40 40h-8c0-22.089844 17.90625-40 40-40zm0 0" fill="#769c30"/><path d="m127.953125 424c0 22.089844-17.910156 40-40 40-22.09375 0-40-17.910156-40-40s17.90625-40 40-40c22.089844 0 40 17.910156 40 40zm0 0" fill="#fd882f"/></svg>