<svg width="700" height="700" xmlns="http://www.w3.org/2000/svg">

 <g>
  <title>background</title>
  <rect fill="none" id="canvas_background" height="702" width="702" y="-1" x="-1"/>
 </g>
 <g>
  <title>Layer 1</title>
  <path id="svg_1" fill="#95cc81" d="m480.87109,434.90234c-3.46093,0 -6.67578,-2.18359 -7.83203,-5.64453l-24.77343,-74.32031c-1.44532,-4.33203 0.89453,-9.00781 5.21875,-10.44531c4.37109,-1.45313 9,0.89453 10.44531,5.21875l24.77344,74.32031c1.4414,4.33203 -0.89454,9.00781 -5.21875,10.44531c-0.8711,0.28907 -1.75,0.42578 -2.61329,0.42578zm0,0"/>
  <path id="svg_2" fill="#c8eb82" d="m472.61328,443.16016c-1.93359,0 -3.87109,-0.66797 -5.43359,-2.03907c-3.4375,-3.00781 -3.78516,-8.22656 -0.78516,-11.65234l57.8086,-66.06641c3.01562,-3.44921 8.22656,-3.78125 11.65234,-0.78125c3.43359,3.00782 3.78125,8.22657 0.78125,11.65235l-57.80469,66.0664c-1.63672,1.8711 -3.92187,2.82032 -6.21875,2.82032zm0,0"/>
  <path id="svg_3" fill="#aedb81" d="m472.62109,434.90234c-0.71093,0 -1.41796,-0.08593 -2.13671,-0.28125c-4.40235,-1.16796 -7.02344,-5.6914 -5.84766,-10.10546l33.03125,-123.8711c1.17969,-4.41015 5.71094,-7.03125 10.10547,-5.84375c4.40234,1.16797 7.02344,5.69141 5.84765,10.10156l-33.03125,123.8711c-0.98437,3.69531 -4.32421,6.1289 -7.96875,6.1289zm0,0"/>
  <path id="svg_4" fill="#ffeaa8" d="m472.61328,422.51563c0,25.08593 -20.33594,45.41796 -45.41797,45.41796c-25.08594,0 -45.42187,-20.33203 -45.42187,-45.41796c0,-25.08204 20.33593,-45.41797 45.42187,-45.41797c25.08203,0 45.41797,20.33593 45.41797,45.41797zm0,0"/>
  <path id="svg_5" fill="#ffe07d" d="m447.83984,459.67969c-27.36718,0 -49.55078,-22.1836 -49.55078,-49.55078c0,-10.5625 3.37891,-20.41016 9.01172,-28.45313c-15.07422,7.39063 -25.52734,22.92188 -25.52734,40.83985c0,25.08593 20.33594,45.42187 45.42187,45.42187c9.94141,0 19.10547,-3.23047 26.58203,-8.64844c-1.94921,0.23438 -3.92578,0.39063 -5.9375,0.39063zm0,0"/>
  <path id="svg_6" fill="#e2a975" d="m530.41797,484.45313c0,31.92578 -25.87891,57.80468 -57.80469,57.80468s-57.80469,-25.8789 -57.80469,-57.80468s25.87891,-57.8086 57.80469,-57.8086s57.80469,25.88281 57.80469,57.8086zm0,0"/>
  <path id="svg_7" fill="#d19a6e" d="m448.28125,517.48438c4.95703,-9.96094 7.81641,-21.15235 7.81641,-33.03125c0,-17.89844 -6.3711,-34.34375 -16.91016,-47.17188c-14.75781,10.47656 -24.38281,27.69531 -24.38281,47.17188c0,31.92578 25.88281,57.80468 57.80859,57.80468c19.63281,0 36.95313,-9.8125 47.39844,-24.77343l-71.73047,0zm0,0"/>
  <path id="svg_8" fill="#ff8086" d="m439.57813,484.45313c0,31.92578 -25.87891,57.80468 -57.80469,57.80468c-31.92578,0 -57.80469,-25.8789 -57.80469,-57.80468s25.87891,-57.8086 57.80469,-57.8086c31.92578,0 57.80469,25.88281 57.80469,57.8086zm0,0"/>
  <path id="svg_9" fill="#e5646e" d="m402.41797,521.61328c-31.92578,0 -57.80469,-25.88281 -57.80469,-57.80469c0,-10.66406 2.96485,-20.69921 8,-29.27343c-17.10156,10.03906 -28.64453,28.65234 -28.64453,49.91797c0,31.92578 25.87891,57.80468 57.80469,57.80468c21.26562,0 39.79687,-11.51562 49.83594,-28.61718c-8.57422,5.03515 -18.52735,7.97265 -29.19141,7.97265zm0,0"/>
  <path id="svg_10" fill="#c38c66" d="m150.54688,583.55078l412.90234,0l0,66.0625l-412.90234,0l0,-66.0625zm0,0"/>
  <path id="svg_11" fill="#c38c66" d="m150.54688,517.48438l412.90234,0l0,66.0664l-412.90234,0l0,-66.0664zm0,0"/>
  <path id="svg_12" fill="#9f6e50" d="m150.54688,534l412.90234,0l0,16.51563l-412.90234,0l0,-16.51563zm0,0"/>
  <path id="svg_13" fill="#9f6e50" d="m150.54688,616.58203l412.90234,0l0,16.51563l-412.90234,0l0,-16.51563zm0,0"/>
  <path id="svg_14" fill="#c8eb82" d="m224.87109,443.16016c-0.93359,0 -1.88671,-0.16016 -2.82031,-0.5c-4.28125,-1.55469 -6.5,-6.28907 -4.9375,-10.57813l33.03516,-90.83984c1.55469,-4.28125 6.27344,-6.48438 10.57812,-4.9336c4.28516,1.55469 6.5,6.28907 4.9375,10.57813l-33.03125,90.83984c-1.21875,3.35547 -4.39062,5.4336 -7.76172,5.4336zm0,0"/>
  <path id="svg_15" fill="#aedb81" d="m216.61328,443.16016c-4.5625,0 -8.25781,-3.69141 -8.25781,-8.25782l0,-132.1289c0,-4.5625 3.69531,-8.25781 8.25781,-8.25781c4.56641,0 8.25781,3.69531 8.25781,8.25781l0,132.1289c0,4.56641 -3.6914,8.25782 -8.25781,8.25782zm0,0"/>
  <path id="svg_16" fill="#95cc81" d="m208.35547,443.16016c-3.37109,0 -6.53906,-2.07813 -7.75781,-5.4336l-33.03125,-90.83984c-1.5625,-4.28906 0.65234,-9.02344 4.9375,-10.57813c4.30468,-1.55859 9.02343,0.64454 10.57812,4.9336l33.03125,90.83984c1.56641,4.28906 -0.65234,9.02344 -4.93359,10.57813c-0.9375,0.33984 -1.88672,0.5 -2.82422,0.5zm0,0"/>
  <path id="svg_17" fill="#c8eb82" d="m307.45313,426.64453c-0.9375,0 -1.88672,-0.16015 -2.82422,-0.5c-4.28125,-1.55469 -6.5,-6.28906 -4.9336,-10.57812l33.03125,-90.83985c1.55469,-4.28125 6.27344,-6.48437 10.58203,-4.9375c4.28125,1.5586 6.5,6.29297 4.9336,10.58203l-33.03125,90.83985c-1.21875,3.35547 -4.38672,5.43359 -7.75781,5.43359zm0,0"/>
  <path id="svg_18" fill="#aedb81" d="m299.19531,426.64453c-4.5664,0 -8.25781,-3.6914 -8.25781,-8.25781l0,-132.12891c0,-4.5664 3.69141,-8.25781 8.25781,-8.25781c4.5625,0 8.25782,3.69531 8.25782,8.25781l0,132.12891c0,4.56641 -3.69532,8.25781 -8.25782,8.25781zm0,0"/>
  <path id="svg_19" fill="#95cc81" d="m290.93359,426.64453c-3.37109,0 -6.53906,-2.07812 -7.75781,-5.43359l-33.03125,-90.83985c-1.5664,-4.28906 0.65235,-9.02343 4.9336,-10.58203c4.30859,-1.55468 9.02734,0.64453 10.58203,4.9375l33.03125,90.83594c1.5664,4.29297 -0.65235,9.02734 -4.9336,10.58203c-0.93359,0.33985 -1.88672,0.5 -2.82422,0.5zm0,0"/>
  <path id="svg_20" fill="#ffa95f" d="m185.83984,453.53125l30.62891,237.37109l30.62891,-237.37109c1.27343,-9.87891 -6.42188,-18.62891 -16.37891,-18.62891l-28.49609,0c-9.96094,0 -17.65625,8.75 -16.38282,18.62891zm0,0"/>
  <path id="svg_21" fill="#ff8b5a" d="m204.62109,453.53125c-1.27343,-9.87891 6.42188,-18.62891 16.38282,-18.62891l-18.78125,0c-9.96094,0 -17.65625,8.75 -16.38282,18.62891l30.62891,237.37109l9.39063,-72.77734l-21.23829,-164.59375zm0,0"/>
  <path id="svg_22" fill="#ffa95f" d="m268.56641,437.01563l30.625,237.37109l30.6289,-237.3711c1.27735,-9.8789 -6.41797,-18.6289 -16.3789,-18.6289l-28.4961,0c-9.96093,0 -17.65625,8.75 -16.3789,18.6289l0,0.00001zm0,0"/>
  <path id="svg_23" fill="#ff8b5a" d="m287.34766,437.01563c-1.27735,-9.87891 6.41797,-18.62891 16.3789,-18.62891l-18.78125,0c-9.96093,0 -17.65625,8.75 -16.3789,18.62891l30.6289,237.37109l9.39063,-72.77734l-21.23828,-164.59375zm0,0"/>
  <path id="svg_24" fill="#ecbd83" d="m596.48438,657.87109l-33.03125,0l0,-198.1914c0,-4.5625 3.69531,-8.25781 8.25781,-8.25781l16.51562,0c4.5586,0 8.25782,3.69531 8.25782,8.25781l0,198.1914zm0,0"/>
  <path id="svg_25" fill="#e2a975" d="m563.45313,534l33.03125,0l0,16.51563l-33.03125,0l0,-16.51563zm0,0"/>
  <path id="svg_26" fill="#e2a975" d="m563.45313,616.58203l33.03125,0l0,16.51563l-33.03125,0l0,-16.51563zm0,0"/>
  <path id="svg_27" fill="#ecbd83" d="m150.54688,657.87109l-33.03125,0l0,-198.1914c0,-4.5625 3.69921,-8.25781 8.25781,-8.25781l16.51562,0c4.5625,0 8.25782,3.69531 8.25782,8.25781l0,198.1914zm0,0"/>
  <path id="svg_28" fill="#e2a975" d="m117.51563,534l33.03125,0l0,16.51563l-33.03125,0l0,-16.51563zm0,0"/>
  <path id="svg_29" fill="#e2a975" d="m117.51563,616.58203l33.03125,0l0,16.51563l-33.03125,0l0,-16.51563zm0,0"/>
  <path id="svg_30" fill="#f6d190" d="m604.74219,534l-495.48438,0c-4.5625,0 -8.25781,-3.69531 -8.25781,-8.25781l0,-33.03125c0,-4.5625 3.69531,-8.25781 8.25781,-8.25781l495.48438,0c4.5625,0 8.25781,3.69531 8.25781,8.25781l0,33.03125c0,4.5625 -3.69531,8.25781 -8.25781,8.25781zm0,0"/>
  <path id="svg_31" fill="#ecbd83" d="m134.03125,517.48438c-9.12109,0 -16.51562,-7.39454 -16.51562,-16.51563l0,-16.51562l-8.25782,0c-4.5625,0 -8.25781,3.69531 -8.25781,8.25781l0,33.03125c0,4.5625 3.69531,8.25781 8.25781,8.25781l495.48438,0c4.5625,0 8.25781,-3.69531 8.25781,-8.25781l0,-8.25781l-478.96875,0zm0,0"/>
  <path id="svg_32" fill="#f6d190" d="m604.74219,616.58203l-495.48438,0c-4.5625,0 -8.25781,-3.69922 -8.25781,-8.25781l0,-33.03516c0,-4.55859 3.69531,-8.25781 8.25781,-8.25781l495.48438,0c4.5625,0 8.25781,3.69922 8.25781,8.25781l0,33.03516c0,4.55859 -3.69531,8.25781 -8.25781,8.25781zm0,0"/>
  <path id="svg_33" fill="#ecbd83" d="m134.03125,600.06641c-9.12109,0 -16.51562,-7.39453 -16.51562,-16.51563l0,-16.51953l-8.25782,0c-4.5625,0 -8.25781,3.69922 -8.25781,8.25781l0,33.03516c0,4.55859 3.69531,8.25781 8.25781,8.25781l495.48438,0c4.5625,0 8.25781,-3.69922 8.25781,-8.25781l0,-8.25781l-478.96875,0zm0,0"/>
  <path id="svg_34" fill="#f6d190" d="m604.74219,699.16016l-495.48438,0c-4.5625,0 -8.25781,-3.69532 -8.25781,-8.25782l0,-33.03125c0,-4.5625 3.69531,-8.25781 8.25781,-8.25781l495.48438,0c4.5625,0 8.25781,3.69531 8.25781,8.25781l0,33.03125c0,4.5625 -3.69531,8.25782 -8.25781,8.25782zm0,0"/>
  <path id="svg_35" fill="#ecbd83" d="m134.03125,682.64453c-9.12109,0 -16.51562,-7.39453 -16.51562,-16.51562l0,-16.51563l-8.25782,0c-4.5625,0 -8.25781,3.69922 -8.25781,8.25781l0,33.03125c0,4.5625 3.69531,8.25782 8.25781,8.25782l495.48438,0c4.5625,0 8.25781,-3.69532 8.25781,-8.25782l0,-8.25781l-478.96875,0zm0,0"/>
  <path id="svg_36" fill="#ffa95f" d="m290.93359,443.16016l-21.57812,0l2.13281,16.51953l19.44531,0c4.56641,0 8.25782,-3.69531 8.25782,-8.25781c0,-4.56641 -3.69141,-8.26172 -8.25782,-8.26172zm0,0"/>
  <path id="svg_37" fill="#ffc269" d="m290.93359,459.67969c4.56641,0 8.25782,-3.69531 8.25782,-8.25781c0,-4.56641 -3.69141,-8.26172 -8.25782,-8.26172l-2.79296,0l2.1289,16.51953l0.66406,0zm0,0"/>
 </g>
</svg>