<svg width="512" height="512" xmlns="http://www.w3.org/2000/svg">

 <g>
  <title>background</title>
  <rect fill="none" id="canvas_background" height="402" width="582" y="-1" x="-1"/>
 </g>
 <g>
  <title>Layer 1</title>
  <path id="svg_1" fill="#F9EBCF" d="m141.122,400.84c-24.234,-24.109 -24.234,-63.341 0,-87.45c5.516,-5.49 14.46,-5.49 19.976,0l67.925,67.574c5.517,5.491 5.516,14.389 0,19.877c-24.234,24.108 -63.668,24.11 -87.901,-0.001z"/>
  <path id="svg_2" fill="#FFCC60" d="m172.088,329.287c-11.311,11.254 -11.309,29.494 0,40.746c11.308,11.25 29.645,11.25 40.953,0c0.847,-0.843 1.61,-1.736 2.33,-2.653l-40.619,-40.41c-0.92,0.719 -1.818,1.475 -2.664,2.317z"/>
  <path id="svg_3" fill="#78B591" d="m154.064,400.777c-7.612,-7.651 -20.195,-8.746 -34.01,-4.306c4.42,-13.888 3.331,-26.535 -4.284,-34.191c-8.561,-8.604 -23.409,-8.916 -39.227,-2.383c-14.566,-10.17 -34.72,-8.741 -47.703,4.309c-12.984,13.052 -14.406,33.312 -4.288,47.957c-6.499,15.901 -6.189,30.827 2.373,39.433c7.613,7.652 20.196,8.747 34.011,4.305c-4.418,13.889 -3.33,26.538 4.284,34.191c7.613,7.653 20.196,8.747 34.012,4.306c-4.419,13.888 -3.33,26.536 4.285,34.192c14.17,14.244 45.545,5.8 70.078,-18.866c24.534,-24.664 32.936,-56.204 18.766,-70.447c-7.613,-7.655 -20.196,-8.75 -34.012,-4.308c4.419,-13.888 3.329,-26.537 -4.285,-34.192z"/>
  <path id="svg_4" fill="#619376" d="m125.853,469.814c-2.076,0 -4.151,-0.794 -5.731,-2.382l-68.245,-68.604c-3.148,-3.165 -3.135,-8.284 0.03,-11.432c3.166,-3.148 8.285,-3.134 11.432,0.03l68.246,68.604c3.148,3.165 3.135,8.283 -0.03,11.432c-1.578,1.568 -3.64,2.352 -5.702,2.352z"/>
  <path id="svg_5" fill="#EF645E" d="m187.991,438.659c-13.914,27.067 -47.196,37.655 -74.191,23.602c-6.144,-3.201 -8.559,-10.789 -5.391,-16.95l38.995,-75.868c3.168,-6.163 10.718,-8.563 16.863,-5.365c26.994,14.055 37.638,47.514 23.724,74.581z"/>
  <g id="svg_6">
   <path id="svg_123" fill="#C14616" d="m131.722,465.54c-1.258,0 -2.535,-0.295 -3.728,-0.916l-1.113,-0.581c-3.96,-2.064 -5.497,-6.945 -3.434,-10.906c2.064,-3.959 6.945,-5.496 10.906,-3.434l1.113,0.58c3.96,2.064 5.497,6.945 3.434,10.907c-1.442,2.766 -4.259,4.35 -7.178,4.35z"/>
   <path id="svg_124" fill="#C14616" d="m169.589,390.496c-1.242,0 -2.503,-0.287 -3.684,-0.893c-3.972,-2.039 -5.54,-6.911 -3.501,-10.885l0.573,-1.115c2.039,-3.971 6.909,-5.539 10.884,-3.501c3.972,2.039 5.54,6.911 3.5,10.885l-0.573,1.115c-1.432,2.791 -4.264,4.394 -7.199,4.394z"/>
   <path id="svg_125" fill="#C14616" d="m151.553,446.163c-1.255,0 -2.529,-0.294 -3.721,-0.912l-1.112,-0.579c-3.961,-2.06 -5.505,-6.94 -3.445,-10.901c2.058,-3.962 6.937,-5.506 10.901,-3.446l1.112,0.578c3.962,2.059 5.505,6.94 3.446,10.901c-1.44,2.77 -4.26,4.359 -7.181,4.359z"/>
   <path id="svg_126" fill="#C14616" d="m166.431,419.965c-1.255,0 -2.53,-0.294 -3.721,-0.912l-1.112,-0.579c-3.962,-2.058 -5.505,-6.94 -3.446,-10.901c2.059,-3.961 6.937,-5.505 10.901,-3.446l1.112,0.578c3.962,2.059 5.505,6.94 3.446,10.901c-1.44,2.77 -4.26,4.359 -7.18,4.359z"/>
  </g>
  <ellipse id="svg_11" fill="#EF645E" ry="37.409" rx="37.602" cy="381.574" cx="374.45"/>
  <path id="svg_12" fill="#78B591" d="m453.527,515.92c7.9,-7.859 9.03,-20.849 4.445,-35.112c14.336,4.564 27.391,3.439 35.289,-4.419c8.885,-8.838 9.206,-24.164 2.464,-40.495c10.496,-15.037 9.022,-35.843 -4.449,-49.245c-13.471,-13.402 -34.384,-14.87 -49.498,-4.426c-16.415,-6.709 -31.819,-6.389 -40.702,2.449c-7.9,7.859 -9.031,20.849 -4.444,35.113c-14.338,-4.562 -27.392,-3.439 -35.292,4.42c-7.9,7.86 -9.029,20.849 -4.445,35.111c-14.335,-4.56 -27.39,-3.437 -35.29,4.423c-14.704,14.629 -5.986,47.018 19.471,72.342c25.457,25.325 58.014,34.001 72.715,19.372c7.9,-7.86 9.03,-20.847 4.444,-35.111c14.336,4.562 27.391,3.436 35.292,-4.422z"/>
  <path id="svg_13" fill="#5B8C6F" d="m390.615,495.323c-2.189,0 -4.378,-0.838 -6.045,-2.513c-3.321,-3.337 -3.307,-8.736 0.031,-12.057l70.812,-70.45c3.336,-3.323 8.734,-3.307 12.057,0.03c3.321,3.337 3.307,8.736 -0.031,12.058l-70.811,70.449c-1.663,1.655 -3.839,2.483 -6.013,2.483z"/>
  <ellipse id="svg_14" fill="#FFAB5F" ry="37.409" rx="37.603" cy="472.909" cx="110.342"/>
  <path id="svg_15" fill="#A5BC79" d="m355.168,368.985c-8.051,-8.011 -21.359,-9.156 -35.97,-4.508c4.675,-14.537 3.523,-27.774 -4.53,-35.784c-9.053,-9.007 -24.753,-9.335 -41.483,-2.497c-15.404,-10.645 -36.718,-9.148 -50.448,4.512c-13.73,13.658 -15.234,34.864 -4.535,50.19c-6.872,16.644 -6.544,32.263 2.51,41.271c8.052,8.009 21.358,9.155 35.969,4.506c-4.674,14.537 -3.521,27.775 4.53,35.786c8.052,8.009 21.359,9.155 35.97,4.507c-4.674,14.538 -3.522,27.777 4.531,35.786c14.984,14.91 48.166,6.07 74.109,-19.742c25.945,-25.815 34.831,-58.828 19.846,-73.733c-8.052,-8.011 -21.358,-9.156 -35.97,-4.508c4.675,-14.539 3.521,-27.777 -4.529,-35.786z"/>
  <path id="svg_16" fill="#EF645E" d="m228.338,262.844c-21.576,21.465 -56.684,21.465 -78.259,-0.001c-4.911,-4.886 -4.911,-12.808 0,-17.692l60.471,-60.164c4.913,-4.888 12.876,-4.887 17.786,0c21.576,21.465 21.578,56.391 0.002,77.857z"/>
  <ellipse id="svg_17" fill="#FFAB5F" ry="26.405" rx="26.543" cy="263.699" cx="317.858"/>
  <path id="svg_18" fill="#C14616" d="m377.851,160.631c3.675,3.658 3.675,9.586 0,13.243l-15.972,15.891c-3.676,3.656 -9.634,3.655 -13.311,0l-15.971,-15.891c-3.676,-3.657 -3.676,-9.585 0,-13.243l15.971,-15.89c3.677,-3.656 9.635,-3.655 13.311,0l15.972,15.89z"/>
  <path id="svg_19" fill="#A5BC79" d="m100.437,280.606c2.972,2.956 2.972,7.749 0,10.703l-12.909,12.844c-2.97,2.955 -7.786,2.953 -10.756,0l-12.908,-12.844c-2.971,-2.954 -2.971,-7.747 0,-10.703l12.909,-12.84c2.971,-2.956 7.787,-2.955 10.756,0l12.908,12.84z"/>
  <path id="svg_20" fill="#C14616" d="m436.463,304.832c2.971,2.956 2.971,7.747 0,10.702l-12.909,12.843c-2.97,2.956 -7.786,2.954 -10.756,0l-12.909,-12.843c-2.971,-2.955 -2.971,-7.746 0,-10.702l12.909,-12.841c2.972,-2.956 7.788,-2.955 10.756,0l12.909,12.841z"/>
  <path id="svg_21" fill="#899B62" d="m325.332,440.862c-2.063,0 -4.124,-0.785 -5.702,-2.354l-72.171,-71.803c-3.165,-3.148 -3.179,-8.267 -0.029,-11.432c3.149,-3.164 8.267,-3.178 11.432,-0.028l72.171,71.803c3.165,3.149 3.179,8.267 0.029,11.432c-1.578,1.587 -3.653,2.382 -5.73,2.382z"/>
  <path id="svg_22" fill="#EF645E" d="m79.887,472.835c4.611,4.588 4.611,12.025 0,16.612l-20.036,19.933c-4.611,4.588 -12.086,4.586 -16.696,0l-20.036,-19.932c-4.61,-4.588 -4.61,-12.025 0,-16.612l20.036,-19.934c4.612,-4.59 12.086,-4.586 16.696,0l20.036,19.933z"/>
  <path id="svg_23" fill="#C14616" d="m215.765,483.953c-21.576,21.465 -56.683,21.465 -78.259,0c-4.911,-4.886 -4.911,-12.808 0,-17.693l60.471,-60.164c4.912,-4.887 12.876,-4.886 17.786,0c21.576,21.465 21.58,56.394 0.002,77.857z"/>
  <g id="svg_24">
   <ellipse id="svg_141" fill="#FFAB5F" ry="32.12" rx="32.285" cy="442.481" cx="316.061"/>
   <ellipse id="svg_142" fill="#FFAB5F" ry="26.405" rx="26.541" cy="484.497" cx="453.162"/>
  </g>
  <path id="svg_27" fill="#EF645E" d="m386.53,465.113c5.519,5.491 5.519,14.393 0,19.885l-23.985,23.86c-5.518,5.492 -14.467,5.49 -19.987,0l-23.984,-23.86c-5.518,-5.492 -5.518,-14.395 0,-19.885l23.984,-23.862c5.521,-5.49 14.469,-5.488 19.987,0l23.985,23.862z"/>
  <g id="svg_28">
   <path id="svg_145" fill="#C14616" d="m168.717,271.777c-2.062,0 -4.122,-0.783 -5.7,-2.35l-0.889,-0.885c-3.166,-3.148 -3.182,-8.266 -0.033,-11.432c3.147,-3.166 8.266,-3.181 11.432,-0.034l0.889,0.885c3.166,3.148 3.182,8.266 0.033,11.432c-1.579,1.588 -3.655,2.384 -5.732,2.384z"/>
   <path id="svg_146" fill="#C14616" d="m227.855,212.057c-2.075,0 -4.15,-0.794 -5.729,-2.381c-3.149,-3.165 -3.138,-8.283 0.027,-11.432l0.89,-0.885c3.163,-3.152 8.282,-3.139 11.432,0.026c3.149,3.165 3.138,8.283 -0.027,11.432l-0.89,0.885c-1.577,1.57 -3.64,2.355 -5.703,2.355z"/>
   <path id="svg_147" fill="#C14616" d="m193.617,259.391c-2.062,0 -4.122,-0.784 -5.7,-2.351l-0.889,-0.884c-3.166,-3.149 -3.182,-8.266 -0.033,-11.432c3.147,-3.166 8.266,-3.182 11.432,-0.034l0.889,0.884c3.166,3.149 3.182,8.266 0.033,11.432c-1.579,1.589 -3.655,2.385 -5.732,2.385z"/>
   <path id="svg_148" fill="#C14616" d="m215.849,239.042c-2.065,0 -4.128,-0.785 -5.706,-2.357l-0.89,-0.887c-3.163,-3.151 -3.171,-8.269 -0.02,-11.432c3.15,-3.163 8.269,-3.172 11.432,-0.021l0.889,0.887c3.163,3.152 3.172,8.269 0.021,11.432c-1.579,1.585 -3.653,2.378 -5.726,2.378z"/>
  </g>
  <g id="svg_33">
   <path id="svg_150" fill="#A03615" d="m156.146,492.885c-2.062,0 -4.122,-0.783 -5.7,-2.35l-0.89,-0.885c-3.166,-3.148 -3.181,-8.265 -0.033,-11.432c3.147,-3.165 8.266,-3.181 11.432,-0.034l0.889,0.885c3.166,3.148 3.182,8.266 0.033,11.432c-1.578,1.59 -3.655,2.384 -5.731,2.384z"/>
   <path id="svg_151" fill="#A03615" d="m215.283,433.165c-2.075,0 -4.15,-0.794 -5.73,-2.381c-3.149,-3.165 -3.137,-8.283 0.027,-11.432l0.889,-0.885c3.163,-3.152 8.282,-3.14 11.432,0.026c3.149,3.165 3.137,8.283 -0.027,11.432l-0.89,0.885c-1.575,1.57 -3.639,2.355 -5.701,2.355z"/>
   <path id="svg_152" fill="#A03615" d="m181.046,480.5c-2.063,0 -4.125,-0.785 -5.703,-2.355l-0.89,-0.885c-3.165,-3.15 -3.176,-8.267 -0.027,-11.432c3.15,-3.162 8.268,-3.176 11.432,-0.026l0.889,0.885c3.165,3.15 3.178,8.267 0.027,11.432c-1.578,1.586 -3.653,2.381 -5.728,2.381z"/>
   <path id="svg_153" fill="#A03615" d="m203.278,460.148c-2.063,0 -4.124,-0.783 -5.701,-2.352l-0.889,-0.885c-3.166,-3.148 -3.179,-8.267 -0.03,-11.432c3.148,-3.167 8.267,-3.181 11.432,-0.03l0.889,0.885c3.166,3.148 3.179,8.267 0.03,11.432c-1.58,1.589 -3.656,2.382 -5.731,2.382z"/>
  </g>
  <path id="svg_38" fill="#FFFFFF" d="m236.911,498.727c-24.234,-24.111 -24.234,-63.34 0,-87.452c5.516,-5.488 14.46,-5.488 19.976,0l67.925,67.576c5.517,5.49 5.516,14.389 0,19.876c-24.234,24.11 -63.668,24.111 -87.901,0z"/>
  <path id="svg_39" fill="#FFCC60" d="m267.877,427.174c-11.311,11.255 -11.309,29.495 0,40.747c11.307,11.25 29.645,11.25 40.953,0c0.846,-0.844 1.608,-1.736 2.33,-2.654l-40.62,-40.409c-0.92,0.717 -1.818,1.475 -2.663,2.316z"/>
  <path id="svg_40" fill="#F9EBCF" d="m152.485,624.181c-34.73,0 -68.307,-12.408 -94.543,-34.939c-26.064,-22.381 -43.261,-53.295 -48.424,-87.05c-0.553,-3.604 0.506,-7.27 2.895,-10.036c2.39,-2.767 5.872,-4.358 9.538,-4.358l462.296,0c3.667,0 7.148,1.59 9.538,4.358c2.389,2.766 3.446,6.432 2.895,10.036c-5.163,33.755 -22.36,64.67 -48.424,87.05c-26.237,22.531 -59.815,34.939 -94.544,34.939l-201.227,0z"/>
  <g id="svg_41">
   <path id="svg_158" fill="#DDB690" d="m132.451,514.763l-120.424,0c1.354,5.487 3.039,10.872 5.024,16.135l115.4,0c4.456,0 8.068,-3.613 8.068,-8.068c-0.001,-4.455 -3.612,-8.067 -8.068,-8.067z"/>
   <path id="svg_159" fill="#DDB690" d="m104.824,552.3l-77.61,0c3.257,5.607 6.893,11 10.892,16.135l66.718,0c4.455,0 8.068,-3.61 8.068,-8.068c0,-4.455 -3.612,-8.067 -8.068,-8.067z"/>
  </g>
  <path id="svg_44" opacity="0.1" d="m54.652,502.192c-0.553,-3.604 0.506,-7.27 2.895,-10.036c2.39,-2.767 5.872,-4.358 9.538,-4.358l-45.133,0c-3.667,0 -7.149,1.59 -9.538,4.358c-2.39,2.766 -3.447,6.432 -2.895,10.036c5.163,33.755 22.36,64.67 48.424,87.05c26.237,22.531 59.814,34.939 94.543,34.939l45.133,0c-34.73,0 -68.306,-12.408 -94.543,-34.939c-26.065,-22.381 -43.262,-53.296 -48.424,-87.05z"/>
  <path id="svg_45" fill="#A5BC79" d="m390.272,643.322c0,5.895 -4.779,10.678 -10.675,10.678l-252.997,0c-5.895,0 -10.675,-4.781 -10.675,-10.678l0,-9.61c0,-5.897 4.779,-10.678 10.675,-10.678l252.997,0c5.895,0 10.675,4.78 10.675,10.678l0,9.61z"/>
  <path id="svg_46" opacity="0.1" d="m160.899,643.322l0,-9.61c0,-5.897 4.779,-10.678 10.675,-10.678l-44.972,0c-5.895,0 -10.675,4.78 -10.675,10.678l0,9.61c0,5.895 4.779,10.678 10.675,10.678l44.972,0c-5.896,0 -10.675,-4.782 -10.675,-10.678z"/>
  <g id="svg_47"/>
  <g id="svg_48"/>
  <g id="svg_49"/>
  <g id="svg_50"/>
  <g id="svg_51"/>
  <g id="svg_52"/>
  <g id="svg_53"/>
  <g id="svg_54"/>
  <g id="svg_55"/>
  <g id="svg_56"/>
  <g id="svg_57"/>
  <g id="svg_58"/>
  <g id="svg_59"/>
  <g id="svg_60"/>
  <g id="svg_61"/>
 </g>
</svg>