<svg height="512pt" viewBox="0 -45 512 512" width="512pt" xmlns="http://www.w3.org/2000/svg"><path d="m379.871094 156.902344c-3.460938 0-6.675782-2.183594-7.832032-5.644532l-24.773437-74.320312c-1.445313-4.332031.894531-9.007812 5.21875-10.445312 4.371094-1.453126 9 .894531 10.445313 5.21875l24.773437 74.320312c1.441406 4.332031-.894531 9.007812-5.21875 10.445312-.871094.289063-1.75.425782-2.613281.425782zm0 0" fill="#95cc81"/><path d="m371.613281 165.160156c-1.933593 0-3.871093-.667968-5.433593-2.039062-3.4375-3.007813-3.785157-8.226563-.785157-11.652344l57.808594-66.066406c3.015625-3.449219 8.226563-3.78125 11.652344-.78125 3.433593 3.007812 3.78125 8.226562.78125 11.652344l-57.804688 66.066406c-1.636719 1.871094-3.921875 2.820312-6.21875 2.820312zm0 0" fill="#c8eb82"/><path d="m371.621094 156.902344c-.710938 0-1.417969-.085938-2.136719-.28125-4.402344-1.167969-7.023437-5.691406-5.847656-10.105469l33.03125-123.871094c1.179687-4.410156 5.710937-7.03125 10.105469-5.84375 4.402343 1.167969 7.023437 5.691407 5.847656 10.101563l-33.03125 123.871094c-.984375 3.695312-4.324219 6.128906-7.96875 6.128906zm0 0" fill="#aedb81"/><path d="m371.613281 144.515625c0 25.085937-20.335937 45.417969-45.417969 45.417969-25.085937 0-45.421874-20.332032-45.421874-45.417969 0-25.082031 20.335937-45.417969 45.421874-45.417969 25.082032 0 45.417969 20.335938 45.417969 45.417969zm0 0" fill="#ffeaa8"/><path d="m346.839844 181.679688c-27.367188 0-49.550782-22.183594-49.550782-49.550782 0-10.5625 3.378907-20.410156 9.011719-28.453125-15.074219 7.390625-25.527343 22.921875-25.527343 40.839844 0 25.085937 20.335937 45.421875 45.421874 45.421875 9.941407 0 19.105469-3.230469 26.582032-8.648438-1.949219.234376-3.925782.390626-5.9375.390626zm0 0" fill="#ffe07d"/><path d="m429.417969 206.453125c0 31.925781-25.878907 57.804687-57.804688 57.804687s-57.804687-25.878906-57.804687-57.804687 25.878906-57.808594 57.804687-57.808594 57.804688 25.882813 57.804688 57.808594zm0 0" fill="#e2a975"/><path d="m347.28125 239.484375c4.957031-9.960937 7.816406-21.152344 7.816406-33.03125 0-17.898437-6.371094-34.34375-16.910156-47.171875-14.757812 10.476562-24.382812 27.695312-24.382812 47.171875 0 31.925781 25.882812 57.804687 57.808593 57.804687 19.632813 0 36.953125-9.8125 47.398438-24.773437zm0 0" fill="#d19a6e"/><path d="m338.578125 206.453125c0 31.925781-25.878906 57.804687-57.804687 57.804687-31.925782 0-57.804688-25.878906-57.804688-57.804687s25.878906-57.808594 57.804688-57.808594c31.925781 0 57.804687 25.882813 57.804687 57.808594zm0 0" fill="#ff8086"/><path d="m301.417969 243.613281c-31.925781 0-57.804688-25.882812-57.804688-57.804687 0-10.664063 2.964844-20.699219 8-29.273438-17.101562 10.039063-28.644531 28.652344-28.644531 49.917969 0 31.925781 25.878906 57.804687 57.804688 57.804687 21.265624 0 39.796874-11.515624 49.835937-28.617187-8.574219 5.035156-18.527344 7.972656-29.191406 7.972656zm0 0" fill="#e5646e"/><path d="m49.546875 305.550781h412.902344v66.0625h-412.902344zm0 0" fill="#c38c66"/><path d="m49.546875 239.484375h412.902344v66.066406h-412.902344zm0 0" fill="#c38c66"/><path d="m49.546875 256h412.902344v16.515625h-412.902344zm0 0" fill="#9f6e50"/><path d="m49.546875 338.582031h412.902344v16.515625h-412.902344zm0 0" fill="#9f6e50"/><path d="m123.871094 165.160156c-.933594 0-1.886719-.160156-2.820313-.5-4.28125-1.554687-6.5-6.289062-4.9375-10.578125l33.035157-90.839843c1.554687-4.28125 6.273437-6.484376 10.578124-4.933594 4.285157 1.554687 6.5 6.289062 4.9375 10.578125l-33.03125 90.839843c-1.21875 3.355469-4.390624 5.433594-7.761718 5.433594zm0 0" fill="#c8eb82"/><path d="m115.613281 165.160156c-4.5625 0-8.257812-3.691406-8.257812-8.257812v-132.128906c0-4.5625 3.695312-8.257813 8.257812-8.257813 4.566407 0 8.257813 3.695313 8.257813 8.257813v132.128906c0 4.566406-3.691406 8.257812-8.257813 8.257812zm0 0" fill="#aedb81"/><path d="m107.355469 165.160156c-3.371094 0-6.539063-2.078125-7.757813-5.433594l-33.03125-90.839843c-1.5625-4.289063.652344-9.023438 4.9375-10.578125 4.304688-1.558594 9.023438.644531 10.578125 4.933594l33.03125 90.839843c1.566407 4.289063-.652343 9.023438-4.933593 10.578125-.9375.339844-1.886719.5-2.824219.5zm0 0" fill="#95cc81"/><path d="m206.453125 148.644531c-.9375 0-1.886719-.160156-2.824219-.5-4.28125-1.554687-6.5-6.289062-4.933594-10.578125l33.03125-90.839844c1.554688-4.28125 6.273438-6.484374 10.582032-4.9375 4.28125 1.558594 6.5 6.292969 4.933594 10.582032l-33.03125 90.839844c-1.21875 3.355468-4.386719 5.433593-7.757813 5.433593zm0 0" fill="#c8eb82"/><path d="m198.195312 148.644531c-4.566406 0-8.257812-3.691406-8.257812-8.257812v-132.128907c0-4.566406 3.691406-8.257812 8.257812-8.257812 4.5625 0 8.257813 3.695312 8.257813 8.257812v132.128907c0 4.566406-3.695313 8.257812-8.257813 8.257812zm0 0" fill="#aedb81"/><path d="m189.933594 148.644531c-3.371094 0-6.539063-2.078125-7.757813-5.433593l-33.03125-90.839844c-1.566406-4.289063.652344-9.023438 4.933594-10.582032 4.308594-1.554687 9.027344.644532 10.582031 4.9375l33.03125 90.835938c1.566406 4.292969-.652344 9.027344-4.933594 10.582031-.933593.339844-1.886718.5-2.824218.5zm0 0" fill="#95cc81"/><path d="m84.839844 175.53125 30.628906 237.371094 30.628906-237.371094c1.273438-9.878906-6.421875-18.628906-16.378906-18.628906h-28.496094c-9.960937 0-17.65625 8.75-16.382812 18.628906zm0 0" fill="#ffa95f"/><path d="m103.621094 175.53125c-1.273438-9.878906 6.421875-18.628906 16.382812-18.628906h-18.78125c-9.960937 0-17.65625 8.75-16.382812 18.628906l30.628906 237.371094 9.390625-72.777344zm0 0" fill="#ff8b5a"/><path d="m167.566406 159.015625 30.625 237.371094 30.628906-237.371094c1.277344-9.878906-6.417968-18.628906-16.378906-18.628906h-28.496094c-9.960937 0-17.65625 8.75-16.378906 18.628906zm0 0" fill="#ffa95f"/><path d="m186.347656 159.015625c-1.277344-9.878906 6.417969-18.628906 16.378906-18.628906h-18.78125c-9.960937 0-17.65625 8.75-16.378906 18.628906l30.628906 237.371094 9.390626-72.777344zm0 0" fill="#ff8b5a"/><path d="m495.484375 379.871094h-33.03125v-198.191406c0-4.5625 3.695313-8.257813 8.257813-8.257813h16.515624c4.558594 0 8.257813 3.695313 8.257813 8.257813zm0 0" fill="#ecbd83"/><path d="m462.453125 256h33.03125v16.515625h-33.03125zm0 0" fill="#e2a975"/><path d="m462.453125 338.582031h33.03125v16.515625h-33.03125zm0 0" fill="#e2a975"/><path d="m49.546875 379.871094h-33.03125v-198.191406c0-4.5625 3.699219-8.257813 8.257813-8.257813h16.515624c4.5625 0 8.257813 3.695313 8.257813 8.257813zm0 0" fill="#ecbd83"/><path d="m16.515625 256h33.03125v16.515625h-33.03125zm0 0" fill="#e2a975"/><path d="m16.515625 338.582031h33.03125v16.515625h-33.03125zm0 0" fill="#e2a975"/><path d="m503.742188 256h-495.484376c-4.5625 0-8.257812-3.695312-8.257812-8.257812v-33.03125c0-4.5625 3.695312-8.257813 8.257812-8.257813h495.484376c4.5625 0 8.257812 3.695313 8.257812 8.257813v33.03125c0 4.5625-3.695312 8.257812-8.257812 8.257812zm0 0" fill="#f6d190"/><path d="m33.03125 239.484375c-9.121094 0-16.515625-7.394531-16.515625-16.515625v-16.515625h-8.257813c-4.5625 0-8.257812 3.695313-8.257812 8.257813v33.03125c0 4.5625 3.695312 8.257812 8.257812 8.257812h495.484376c4.5625 0 8.257812-3.695312 8.257812-8.257812v-8.257813zm0 0" fill="#ecbd83"/><path d="m503.742188 338.582031h-495.484376c-4.5625 0-8.257812-3.699219-8.257812-8.257812v-33.035157c0-4.558593 3.695312-8.257812 8.257812-8.257812h495.484376c4.5625 0 8.257812 3.699219 8.257812 8.257812v33.035157c0 4.558593-3.695312 8.257812-8.257812 8.257812zm0 0" fill="#f6d190"/><path d="m33.03125 322.066406c-9.121094 0-16.515625-7.394531-16.515625-16.515625v-16.519531h-8.257813c-4.5625 0-8.257812 3.699219-8.257812 8.257812v33.035157c0 4.558593 3.695312 8.257812 8.257812 8.257812h495.484376c4.5625 0 8.257812-3.699219 8.257812-8.257812v-8.257813zm0 0" fill="#ecbd83"/><path d="m503.742188 421.160156h-495.484376c-4.5625 0-8.257812-3.695312-8.257812-8.257812v-33.03125c0-4.5625 3.695312-8.257813 8.257812-8.257813h495.484376c4.5625 0 8.257812 3.695313 8.257812 8.257813v33.03125c0 4.5625-3.695312 8.257812-8.257812 8.257812zm0 0" fill="#f6d190"/><path d="m33.03125 404.644531c-9.121094 0-16.515625-7.394531-16.515625-16.515625v-16.515625h-8.257813c-4.5625 0-8.257812 3.699219-8.257812 8.257813v33.03125c0 4.5625 3.695312 8.257812 8.257812 8.257812h495.484376c4.5625 0 8.257812-3.695312 8.257812-8.257812v-8.257813zm0 0" fill="#ecbd83"/><path d="m189.933594 165.160156h-21.578125l2.132812 16.519532h19.445313c4.566406 0 8.257812-3.695313 8.257812-8.257813 0-4.566406-3.691406-8.261719-8.257812-8.261719zm0 0" fill="#ffa95f"/><path d="m189.933594 181.679688c4.566406 0 8.257812-3.695313 8.257812-8.257813 0-4.566406-3.691406-8.261719-8.257812-8.261719h-2.792969l2.128906 16.519532zm0 0" fill="#ffc269"/></svg>