<svg width="470" height="362" xmlns="http://www.w3.org/2000/svg">

 <g>
  <title>background</title>
  <rect fill="none" id="canvas_background" height="364" width="472" y="-1" x="-1"/>
 </g>
 <g>
  <title>Layer 1</title>
  <g stroke="null" id="svg_1">
   <path stroke="null" id="svg_2" fill="#436B1C" d="m159.307575,150.344368c-1.565945,0 -3.099168,-0.693072 -3.982641,-1.952084c-2.870119,-4.080512 -8.231727,-8.800782 -14.387992,-8.628539c-2.617698,-0.123031 -4.739904,-1.714225 -4.814695,-3.973885c-0.079466,-2.267862 1.94925,-4.158431 4.529553,-4.228148c9.84909,-0.258364 18.249098,6.29096 22.629068,12.528606c1.355594,1.927478 0.673122,4.453704 -1.523874,5.642999c-0.761937,0.414203 -1.612689,0.611052 -2.449418,0.611052z"/>
   <g stroke="null" id="svg_3">
    <path stroke="null" id="svg_4" fill="#88C057" d="m254.979778,95.735228c-0.626378,-7.988781 -8.194331,-14.304347 -17.459114,-14.304347c-0.028047,0 -0.051419,0.004101 -0.079466,0.004101c0.163606,-1.2098 0.070117,-2.489317 -0.373957,-3.822148c-1.252756,-3.748329 -5.011023,-6.627243 -9.433063,-7.090658c-3.627382,-0.377294 -6.955599,0.762789 -9.288155,2.78459c-2.220369,-1.759336 -5.127884,-2.858409 -8.353263,-2.858409c-6.913529,0 -12.513533,4.917119 -12.513533,10.978422c0,0.020505 0.004674,0.036909 0.004674,0.057414c-8.400007,0.557738 -15.023719,6.705162 -15.023719,14.218225c0,1.148285 0.172955,2.25966 0.462772,3.330026c-9.998673,0.36499 -17.982653,7.574578 -17.982653,16.436875c0,3.001944 0.930218,5.80704 2.528884,8.230741c-3.071121,2.214549 -5.034395,5.573282 -5.034395,9.333914c0,3.436652 1.659434,6.516516 4.286481,8.71056c11.274801,-8.083104 23.119887,18.950799 37.06848,40.53445c4.632391,7.168577 54.68185,-0.467516 58.669166,3.986188c4.543577,-3.584289 7.479138,-66.001765 7.605349,-71.484824c0.196327,-8.796681 -6.170289,-16.301542 -15.084487,-19.045122z"/>
   </g>
   <path stroke="null" id="svg_5" fill="#EEAF4B" d="m261.379116,177.493099l3.332891,-1.751134c6.170289,-3.248005 13.873802,-3.248005 20.039416,0l3.332891,1.751134c6.170289,3.248005 13.873802,3.248005 20.039416,0l9.41904,-3.674511c1.383641,-3.38744 2.34658,-5.839848 2.729886,-6.926617c8.787988,-24.798849 14.44876,-50.910023 15.220047,-76.95558c0.308514,-10.473997 -9.563948,-26.808347 -25.966634,-19.385506c-16.122218,7.291608 -27.668138,35.256442 -35.783003,48.535534c-11.527222,18.868778 -20.642422,39.390266 -27.135249,60.301351c4.94558,1.094971 10.265117,0.475718 14.771298,-1.89467z"/>
   <path stroke="null" id="svg_6" fill="#ED3F32" d="m139.852466,173.281355l6.287151,3.309521c7.222043,3.801643 16.243754,3.801643 23.465797,0l1.617364,-0.853011c6.170289,-3.248005 13.873802,-3.248005 20.039416,0l3.332891,1.751134c3.622708,1.906973 7.773629,2.66156 11.831062,2.329378c2.991655,-8.476802 1.986646,-19.073829 -2.65042,-26.246508c-15.594004,-24.134484 -28.565634,-19.217365 -41.046446,-8.739267c-2.393324,2.009498 -5.319537,3.481763 -8.50752,4.281462c-13.686823,3.432551 -23.788335,9.046843 -18.043421,24.335434c1.014358,-0.647961 2.426046,-0.824304 3.674127,-0.168142z"/>
   <path stroke="null" id="svg_7" fill="#A46F3E" d="m273.247574,168.565185c-0.495493,0 -1.005009,-0.069717 -1.500502,-0.217354c-2.444743,-0.729981 -3.753593,-3.059359 -2.921538,-5.20419c3.117866,-8.046195 13.130562,-12.352263 22.287832,-9.645592c4.29583,1.283618 8.974966,-0.742284 10.433398,-4.511118c0.82738,-2.144832 3.473125,-3.301319 5.931892,-2.567237c2.444743,0.729981 3.753593,3.059359 2.921538,5.20419c-3.113191,8.050296 -13.116539,12.372768 -22.287832,9.645592c-4.291156,-1.279517 -8.970292,0.750486 -10.433398,4.511118c-0.668448,1.714225 -2.486814,2.78459 -4.431389,2.78459z"/>
   <path stroke="null" id="svg_8" fill="#A46F3E" d="m284.302675,139.993401c-0.495493,0 -1.005009,-0.069717 -1.500502,-0.217354c-2.444743,-0.729981 -3.753593,-3.059359 -2.921538,-5.20419c1.509851,-3.900067 4.660438,-7.053749 8.867453,-8.8746c4.207015,-1.820851 8.970292,-2.09562 13.420379,-0.770991c4.305179,1.287719 8.974966,-0.742284 10.433398,-4.51522c0.82738,-2.148933 3.482474,-3.301319 5.927217,-2.567237c2.444743,0.729981 3.753593,3.059359 2.921538,5.20419c-3.113191,8.054397 -13.116539,12.368667 -22.287832,9.649693c-2.080135,-0.623355 -4.314528,-0.496223 -6.282476,0.356788s-3.440404,2.325277 -4.150922,4.15433c-0.659099,1.710124 -2.477465,2.78459 -4.426715,2.78459z"/>
   <path stroke="null" id="svg_9" fill="#A46F3E" d="m295.362451,111.417516c-0.495493,0 -1.005009,-0.069717 -1.505177,-0.217354c-2.444743,-0.729981 -3.753593,-3.059359 -2.921538,-5.20419c2.729886,-7.061951 11.513199,-10.85129 19.562621,-8.464499c1.542572,0.459314 3.187983,0.369092 4.64174,-0.258364c1.453758,-0.627456 2.542907,-1.718326 3.066447,-3.067561c0.82738,-2.144832 3.477799,-3.297218 5.931892,-2.567237c2.444743,0.729981 3.753593,3.059359 2.921538,5.20419c-1.327547,3.424349 -4.090154,6.192535 -7.782978,7.787831c-3.697499,1.599397 -7.881142,1.833155 -11.784317,0.672567c-3.169285,-0.947335 -6.628386,0.549536 -7.703513,3.334127c-0.663774,1.706023 -2.482139,2.780489 -4.426715,2.780489z"/>
   <g stroke="null" id="svg_10">
    <path stroke="null" id="svg_11" fill="#DAE7EF" d="m216.116306,126.484652c-4.417366,5.154978 -11.386988,11.257291 -8.703847,22.034763l7.217369,28.973684c0,0 0.004674,0 0.004674,0l3.332891,-1.751134c6.170289,-3.248005 13.873802,-3.248005 20.039416,0l3.332891,1.751134c2.711188,1.427154 5.268118,1.898771 5.268118,1.898771c4.870789,-15.678187 11.214033,-31.139021 18.940918,-45.845267c-3.618033,-7.939569 -11.344918,-10.597027 -16.954272,-13.316002c-0.032721,-0.016404 -0.065442,-0.032808 -0.093489,-0.045111c-3.547916,-1.783942 -3.767616,-6.044899 -1.098498,-8.759772c1.051754,-1.070365 1.537898,-2.54263 1.17329,-4.018996l-0.56561,-2.263761c-0.621703,-2.493418 -3.454427,-4.084613 -6.291825,-3.539178l-28.406702,5.437948c-2.842073,0.545435 -4.655764,3.030651 -4.03406,5.519969l0.56561,2.263761c0.373957,1.509174 1.56127,2.677964 3.066447,3.248005c3.454427,1.308224 5.562609,4.691563 3.795663,7.607386c-0.168281,0.274768 -0.364608,0.541334 -0.588982,0.803799z"/>
   </g>
   <path stroke="null" id="svg_12" fill="#FFFFFF" d="m245.920672,113.377802l-32.155621,6.163828c-3.547916,0.680769 -7.091158,-1.312325 -7.867119,-4.424997l-0.462772,-1.85366c-0.775961,-3.112672 1.495828,-6.221243 5.043744,-6.902011l32.155621,-6.163828c3.547916,-0.680769 7.091158,1.312325 7.867119,4.424997l0.462772,1.85366c0.775961,3.116773 -1.495828,6.221243 -5.043744,6.902011z"/>
   <path stroke="null" id="svg_13" fill="#FBD490" d="m325.71373,172.567778l-8.156935,102.64435c-0.598331,10.248441 -10.241745,18.286434 -21.937248,18.286434l-131.216808,0c-11.695503,0 -21.338917,-8.037993 -21.937248,-18.286434l-7.960608,-99.277415c-0.135559,-2.333479 2.748583,-3.854956 5.034395,-2.653358l6.287151,3.309521c7.222043,3.801643 16.243754,3.801643 23.465797,0l1.617364,-0.853011c6.170289,-3.248005 13.873802,-3.248005 20.039416,0l3.332891,1.755235c6.170289,3.248005 13.873802,3.248005 20.039416,0l3.332891,-1.755235c6.170289,-3.248005 13.873802,-3.248005 20.039416,0l3.332891,1.755235c6.170289,3.248005 13.873802,3.248005 20.039416,0l3.332891,-1.755235c6.170289,-3.248005 13.873802,-3.248005 20.039416,0l3.332891,1.755235c6.170289,3.248005 13.873802,3.248005 20.039416,0l15.832401,-6.17203c1.005009,-0.393698 2.12688,0.28297 2.070786,1.246709z"/>
   <path stroke="null" id="svg_14" fill="#E0B877" d="m190.593746,240.923526l-32.72123,0c-2.580303,0 -4.674461,-1.833155 -4.674461,-4.101017s2.094159,-4.101017 4.674461,-4.101017l32.72123,0c2.580303,0 4.674461,1.833155 4.674461,4.101017s-2.094159,4.101017 -4.674461,4.101017z"/>
   <path stroke="null" id="svg_15" fill="#E0B877" d="m199.942669,257.327593l-42.070153,0c-2.580303,0 -4.674461,-1.833155 -4.674461,-4.101017s2.094159,-4.101017 4.674461,-4.101017l42.070153,0c2.580303,0 4.674461,1.833155 4.674461,4.101017s-2.094159,4.101017 -4.674461,4.101017z"/>
   <path stroke="null" id="svg_16" fill="#E0B877" d="m209.291592,273.73166l-51.419076,0c-2.580303,0 -4.674461,-1.833155 -4.674461,-4.101017s2.094159,-4.101017 4.674461,-4.101017l51.419076,0c2.580303,0 4.674461,1.833155 4.674461,4.101017s-2.094159,4.101017 -4.674461,4.101017z"/>
   <path stroke="null" id="svg_17" fill="#E0B877" d="m237.338361,273.73166l-9.348923,0c-2.580303,0 -4.674461,-1.833155 -4.674461,-4.101017s2.094159,-4.101017 4.674461,-4.101017l9.348923,0c2.580303,0 4.674461,1.833155 4.674461,4.101017s-2.094159,4.101017 -4.674461,4.101017z"/>
  </g>
  <g id="svg_18"/>
  <g id="svg_19"/>
  <g id="svg_20"/>
  <g id="svg_21"/>
  <g id="svg_22"/>
  <g id="svg_23"/>
  <g id="svg_24"/>
  <g id="svg_25"/>
  <g id="svg_26"/>
  <g id="svg_27"/>
  <g id="svg_28"/>
  <g id="svg_29"/>
  <g id="svg_30"/>
  <g id="svg_31"/>
  <g id="svg_32"/>
 </g>
</svg>